<svg xmlns="http://www.w3.org/2000/svg" width="340" height="200" viewBox="0 0 340 200"><style>* {
          font-family: 'Segoe UI', Ubuntu, "Helvetica Neue", Sans-Serif
        }</style><g class="gpsc-root"><rect x="1" y="1" rx="5" ry="5" height="99%" width="99.41176470588235%" stroke="#2e343b" stroke-width="1" fill="#0d1117" stroke-opacity="1"></rect><text x="30" y="40" class="gpsc-item" style="--gpsc-i: 0; font-size: 22px; fill: #0366d6;">Top Languages by Commit</text><g transform="translate(0,40)"><g transform="translate(40,0)"><rect y="18" width="14" height="14" class="gpsc-item" style="--gpsc-i: 0; stroke-width: 1px;" fill="#f34b7d" stroke="#0d1117"></rect><rect y="43.2" width="14" height="14" class="gpsc-item" style="--gpsc-i: 1; stroke-width: 1px;" fill="#7355dd" stroke="#0d1117"></rect><rect y="68.4" width="14" height="14" class="gpsc-item" style="--gpsc-i: 2; stroke-width: 1px;" fill="#f1e05a" stroke="#0d1117"></rect><rect y="93.60000000000002" width="14" height="14" class="gpsc-item" style="--gpsc-i: 3; stroke-width: 1px;" fill="#555555" stroke="#0d1117"></rect><rect y="118.80000000000001" width="14" height="14" class="gpsc-item" style="--gpsc-i: 4; stroke-width: 1px;" fill="#e34c26" stroke="#0d1117"></rect><text x="16.8" y="30" class="gpsc-item" style="--gpsc-i: 0; fill: #77909c; font-size: 14px;">C++</text><text x="16.8" y="55.2" class="gpsc-item" style="--gpsc-i: 1; fill: #77909c; font-size: 14px;">C#</text><text x="16.8" y="80.4" class="gpsc-item" style="--gpsc-i: 2; fill: #77909c; font-size: 14px;">JavaScript</text><text x="16.8" y="105.60000000000002" class="gpsc-item" style="--gpsc-i: 3; fill: #77909c; font-size: 14px;">C</text><text x="16.8" y="130.8" class="gpsc-item" style="--gpsc-i: 4; fill: #77909c; font-size: 14px;">HTML</text></g><g transform="translate( 230, 80 )"><g class="arc" style="--gpsc-i: 0;"><path d="M3.67394039744206e-15,-60A60,60,0,1,1,-37.38286688635942,46.93102665994781L-21.80667235037633,27.376432218302888A35,35,0,1,0,2.1431318985078682e-15,-35Z" style="fill: #f34b7d; stroke-width: 2px;" stroke="#0d1117"></path></g><g class="arc" style="--gpsc-i: 1;"><path d="M-37.38286688635942,46.93102665994781A60,60,0,0,1,-57.349674638633445,-17.635612233287613L-33.453976872536174,-10.287440469417774A35,35,0,0,0,-21.80667235037633,27.376432218302888Z" style="fill: #7355dd; stroke-width: 2px;" stroke="#0d1117"></path></g><g class="arc" style="--gpsc-i: 2;"><path d="M-57.349674638633445,-17.635612233287613A60,60,0,0,1,-6.444820746689282,-59.65286485612442L-3.759478768902081,-34.79750449940591A35,35,0,0,0,-33.453976872536174,-10.287440469417774Z" style="fill: #f1e05a; stroke-width: 2px;" stroke="#0d1117"></path></g><g class="arc" style="--gpsc-i: 3;"><path d="M-6.444820746689282,-59.65286485612442A60,60,0,0,1,-1.898882459811234,-59.96994451726482L-1.1076814348898865,-34.982467635071146A35,35,0,0,0,-3.759478768902081,-34.79750449940591Z" style="fill: #555555; stroke-width: 2px;" stroke="#0d1117"></path></g><g class="arc" style="--gpsc-i: 4;"><path d="M-1.898882459811234,-59.96994451726482A60,60,0,0,1,4.226888398968133e-14,-60L2.4656848993980778e-14,-35A35,35,0,0,0,-1.1076814348898865,-34.982467635071146Z" style="fill: #e34c26; stroke-width: 2px;" stroke="#0d1117"></path></g></g></g></g></svg>